<svg xmlns="http://www.w3.org/2000/svg" viewBox="0 0 17 17"><title>settings</title><g id="Layer_2" data-name="Layer 2"><g id="Layer_1-2" data-name="Layer 1"><path d="M16.19,7.07l-.91-.14a1,1,0,0,1-.79-.63c-.06-.17-.13-.34-.2-.5a1,1,0,0,1,.12-1L15,4.08a1,1,0,0,0-.09-1.24l-.7-.7a1,1,0,0,0-1.24-.09l-.74.55a.94.94,0,0,1-1,.06l-.52-.23a1,1,0,0,1-.63-.75L9.93.81A1,1,0,0,0,9,0H8a1,1,0,0,0-.94.81L7,1.59a1,1,0,0,1-.68.77,4.82,4.82,0,0,0-.57.22,1,1,0,0,1-1-.08l-.62-.45a1,1,0,0,0-1.24.09l-.7.7a1,1,0,0,0-.09,1.24l.42.57a1,1,0,0,1,.07,1,6,6,0,0,0-.27.63A1,1,0,0,1,1.51,7l-.7.11A1,1,0,0,0,0,8V9a1,1,0,0,0,.81.94l.7.11a1,1,0,0,1,.76.66,6,6,0,0,0,.27.63,1,1,0,0,1-.07,1l-.42.57a1,1,0,0,0,.09,1.24l.7.7A1,1,0,0,0,4.08,15l.62-.45a1,1,0,0,1,1-.08,4.82,4.82,0,0,0,.57.22,1,1,0,0,1,.68.77l.12.78A1,1,0,0,0,8,17H9a1,1,0,0,0,.94-.81l.14-.87a1,1,0,0,1,.63-.75l.52-.23a.94.94,0,0,1,1,.06l.74.55a1,1,0,0,0,1.24-.09l.7-.7A1,1,0,0,0,15,12.92l-.54-.73a1,1,0,0,1-.12-1c.07-.16.14-.33.2-.5a1,1,0,0,1,.79-.63l.91-.14A1,1,0,0,0,17,9V8A1,1,0,0,0,16.19,7.07ZM8.38,11a2.5,2.5,0,1,1,2.5-2.5A2.5,2.5,0,0,1,8.38,11Z"/></g></g></svg>